<?xml version="1.0" encoding="UTF-8" standalone="no"?><!DOCTYPE svg PUBLIC "-//W3C//DTD SVG 1.1//EN" "http://www.w3.org/Graphics/SVG/1.1/DTD/svg11.dtd"><svg width="100%" height="100%" viewBox="0 0 1000 500" version="1.1" xmlns="http://www.w3.org/2000/svg" xmlns:xlink="http://www.w3.org/1999/xlink" xml:space="preserve" xmlns:serif="http://www.serif.com/" style="fill-rule:evenodd;clip-rule:evenodd;stroke-linejoin:round;stroke-miterlimit:2;"><path d="M255.592,78.147c21.37,-2.668 42.169,-5.543 63.132,-6.888c37.909,-2.434 75.826,-2.854 113.788,-1.07c23.854,1.121 47.623,2.909 71.243,6.44c31.934,4.773 63.592,11.034 93.408,23.742c34.565,14.729 67.051,32.948 92.428,61.637c10.751,12.155 19.86,25.44 26.472,40.254c2.023,4.534 4.578,5.82 9.258,5.772c36.105,-0.372 71.61,4.087 106.271,14.342c36.539,10.811 69.843,27.54 96.603,55.35c21.887,22.745 36.059,49.716 42.327,80.741c1.957,9.687 1.651,10.121 -8.131,10.129c-33.884,0.031 -67.768,-0.04 -101.651,0.104c-4.892,0.021 -7.328,-1.11 -7.851,-6.611c-2.179,-22.922 -14.607,-38.955 -34.924,-48.877c-27.532,-13.445 -60.552,-6.783 -79.878,15.664c-24.56,28.526 -13.813,72.01 20.97,84.908c4.249,1.575 8.581,2.451 14.558,2.077c-12.922,-5.557 -23.057,-12.528 -28.437,-25.461c21.285,10.669 41.839,11.568 59.22,-5.935c17.422,-17.543 15.731,-38.51 6.671,-59.982c3.448,-0.875 4.885,1.467 6.495,2.977c36.187,33.932 17.733,85.833 -21.38,99.884c-37.115,13.333 -77.693,-12.248 -83.093,-51.83c-5.629,-41.254 25.434,-79.077 67.226,-81.994c27.409,-1.913 50.672,6.393 68.809,27.516c7.321,8.526 11.96,18.545 14.661,29.308c1.159,4.619 3.305,5.75 7.583,5.684c12.04,-0.186 24.084,-0.036 36.128,-0.081c6.536,-0.024 7.409,-1.03 6.302,-7.645c-4.212,-25.138 -15.184,-46.807 -33.613,-64.52c-18.803,-18.072 -41.618,-29.219 -65.974,-37.524c-26.435,-9.013 -53.737,-13.189 -81.569,-14.892c-27.749,-1.7 -55.495,-0.612 -83.239,-0.857c-5.825,-0.051 -8.49,-1.176 -9.318,-7.798c-4.463,-35.704 -25.596,-60.559 -54.227,-79.861c-31.509,-21.24 -67.103,-32.198 -103.945,-39.664c-44.109,-8.939 -88.756,-12.435 -133.67,-14.03c-35.56,-1.262 -71.031,-0.076 -106.356,3.215c-45.057,4.2 -89.829,10.8 -133.915,21.412c-1.772,0.426 -3.696,1.826 -5.968,0.136c1.922,-2.681 4.927,-2.871 7.517,-3.673c47.023,-14.581 95.045,-24.637 143.745,-31.6c0.603,-0.086 1.191,-0.277 2.326,-0.498Z" style="fill:#003e7b;fill-rule:nonzero;"/><path d="M48.36,366.117c85.095,-0.045 169.581,-0.091 254.067,-0.131c7.401,-0.004 7.547,0.169 6.724,7.39c-0.631,5.528 2.827,10.335 8.398,10.655c6.298,0.36 12.651,0.254 18.954,-0.115c5.923,-0.348 9.213,-4.38 10.328,-9.754c1.404,-6.769 5.272,-8.259 11.778,-8.247c111.421,0.192 222.845,0.151 334.268,0.151c9.116,0 9.218,-0.042 10.315,9.104c1.564,13.029 6.458,24.758 13.382,35.775c1.353,2.154 3.636,3.903 3.591,6.877c-2.082,2.065 -4.662,1.277 -6.984,1.285c-32.434,0.094 -64.868,0.149 -97.303,0.152c-92.43,0.007 -184.86,-0.015 -277.291,-0.023c-98.767,-0.009 -197.535,-0.017 -296.301,-0.022c-11.529,-0.001 -11.551,0.006 -11.577,-11.574c-0.027,-11.631 0.19,-23.266 -0.091,-34.891c-0.122,-5.089 1.678,-7.104 6.73,-6.701c3.447,0.276 6.934,0.065 11.012,0.07Z" style="fill:#a3c330;fill-rule:nonzero;"/><path d="M181.137,146.778c4.813,1.415 9.263,2.244 13.224,4.464c13.854,7.768 16.26,25.711 4.984,36.811c-1.423,1.4 -3.377,2.36 -4.026,4.504c0.421,2.47 2.77,2.831 4.402,3.812c9.15,5.499 13.195,13.909 12.726,24.14c-0.484,10.548 -5.628,18.526 -15.647,22.922c-3.952,1.734 -8.008,3.244 -12.276,3.605c-13.021,1.096 -26.045,1.215 -39.058,-0.427c-3.965,-0.501 -5.67,-2.328 -5.661,-6.371c0.059,-28.548 0.061,-57.097 -0.067,-85.644c-0.02,-4.444 2.199,-6.124 6.103,-6.844c11.54,-2.127 23.154,-1.4 35.296,-0.97m-2.75,85.648c11.606,-4.188 14.988,-15.3 7.539,-24.778c-3.919,-4.986 -16.306,-8.445 -21.967,-6.193c-2.304,0.917 -2.801,2.784 -2.818,4.922c-0.033,4.484 0.004,8.968 -0.015,13.452c-0.059,14.739 0.77,15.434 15.724,13.075c0.198,-0.032 0.389,-0.118 1.537,-0.479m-8.49,-72.029c-3.567,0.292 -8.512,-1.684 -8.767,4.528c-0.258,6.311 -0.042,12.645 0.015,18.967c0.02,2.241 0.808,3.774 3.362,4.32c8.946,1.912 18.404,-3.426 20.121,-11.534c1.852,-8.739 -3.025,-14.515 -14.731,-16.281Z" style="fill:#a3c330;fill-rule:nonzero;"/><path d="M248.359,239.713c0.803,6.079 -1.864,7.615 -7.023,7.588c-16.706,-0.085 -14.349,0.693 -14.41,-13.859c-0.109,-25.693 -0.033,-51.385 -0.005,-77.079c0.009,-8.416 0.611,-9.411 8.842,-9.553c12.968,-0.223 26.033,-2.175 38.835,2.022c9.855,3.231 17.08,9.027 18.826,19.574c1.988,12.003 -1.285,22.157 -12.271,28.943c-7.779,4.806 -7.612,4.855 -2.739,12.35c6.555,10.08 12.98,20.245 19.381,30.424c2.957,4.703 1.972,6.604 -3.449,7.111c-0.405,0.038 -0.816,0.017 -1.224,0.034c-16.093,0.681 -16.063,0.663 -24.334,-13.396c-4.651,-7.905 -9.391,-15.758 -14.161,-23.59c-0.927,-1.521 -1.96,-3.458 -4.227,-2.725c-2.202,0.71 -2.003,2.844 -2.01,4.654c-0.04,8.973 -0.036,17.945 -0.032,27.502m7.408,-46.471c11.242,-1.47 17.368,-8.566 16.252,-18.826c-1.018,-9.37 -7.915,-14.628 -18.028,-14.071c-3.796,0.208 -5.61,1.776 -5.6,5.572c0.018,7.12 0.001,14.24 -0.05,21.358c-0.032,4.357 2.007,6.413 7.426,5.967Z" style="fill:#a3c330;fill-rule:nonzero;"/><path d="M405.938,219.171c-0.142,7.934 -0.279,15.273 -0.427,22.612c-0.021,1.008 0.312,2.445 -0.218,2.955c-4.981,4.796 -11.154,1.935 -16.793,2.203c-4.115,0.196 -3.767,-3.431 -3.77,-6.294c-0.015,-20.197 -0.024,-40.394 -0.022,-60.591c0,-8.773 0.048,-17.545 0.044,-26.319c-0.001,-3.084 0.442,-5.823 4.29,-6.18c14.409,-1.339 28.869,-3.055 43.037,1.454c10.08,3.208 16.993,9.561 18.359,20.624c1.477,11.96 -1.818,21.795 -12.814,28.106c-2.098,1.205 -4.139,2.512 -6.149,3.736c0.026,3.607 2.172,5.938 3.763,8.476c6.179,9.846 12.46,19.63 18.621,29.488c1.128,1.807 3.305,3.672 1.792,6.016c-1.363,2.112 -4.02,1.399 -6.185,1.794c-11.72,2.137 -19.129,-2.626 -24.018,-13.348c-3.45,-7.564 -8.315,-14.486 -12.573,-21.68c-1.214,-2.053 -2.272,-4.321 -5.159,-4.937c-2.752,3.6 -1.46,7.579 -1.777,11.884m-0.055,-45.935c0.01,4.889 -0.034,9.78 0.055,14.667c0.042,2.257 0.249,4.415 3.051,5.323c6.979,2.26 15.864,-2.278 18.92,-9.828c3.12,-7.706 0.089,-17.945 -6.218,-21.016c-10.795,-5.257 -15.741,-2.236 -15.807,10.854Z" style="fill:#a3c330;fill-rule:nonzero;"/><path d="M334.319,312.87c3.309,-11.44 6.581,-22.377 9.563,-33.393c1.199,-4.43 4.019,-6.861 8.021,-8.488c10.446,-4.245 21.334,-5.535 32.435,-4.337c12.465,1.346 20.112,10.767 19.167,23.276c-1.303,17.224 -8.454,31.765 -20.878,43.663c-7.866,7.533 -17.219,11.751 -28.298,10.577c-5.047,-0.535 -7.555,1.205 -8.74,6.047c-1.645,6.724 -3.809,13.321 -5.559,20.022c-1.088,4.162 -3.404,5.944 -7.823,6.09c-17.005,0.561 -16.879,0.661 -11.931,-15.466c4.842,-15.775 9.277,-31.675 14.042,-47.991m37.87,4.038c4.194,-8.193 7.786,-16.587 7.742,-26.014c-0.023,-4.836 -1.603,-9.196 -6.947,-10.021c-5.283,-0.817 -8.232,2.508 -9.617,7.366c-3.172,11.13 -6.429,22.236 -9.466,33.403c-0.529,1.943 -1.879,4.377 0.779,6.071c2.261,1.442 4.54,1.431 6.936,0.241c4.567,-2.268 7.594,-6.014 10.574,-11.046Z" style="fill:#003e7b;fill-rule:nonzero;"/><path d="M504.131,222.976c9.206,-24.244 18.306,-48.018 27.178,-71.879c1.593,-4.284 4.576,-4.556 8.229,-4.46c3.471,0.092 6.99,-0.423 8.539,4.001c10.702,30.565 21.484,61.1 32.206,91.659c0.322,0.919 0.258,1.973 0.43,3.436c-6.574,2.679 -13.23,1.644 -19.782,0.904c-2.255,-0.255 -2.699,-2.752 -3.334,-4.715c-1.944,-6.008 -4.15,-11.937 -5.883,-18.002c-1.184,-4.147 -3.41,-5.885 -7.806,-6.08c-19.781,-0.876 -19.776,-0.98 -26.939,17.299c-0.446,1.139 -0.974,2.248 -1.377,3.401c-2.866,8.223 -8.717,11.094 -16.877,8.439c-3.198,-1.04 -2.676,-3.105 -1.83,-5.327c2.322,-6.091 4.703,-12.159 7.243,-18.677m34.621,-38.669c-1.738,-3.194 -2.865,-2.098 -3.81,0.529c-1.104,3.063 -2.26,6.109 -3.355,9.176c-3.202,8.977 -1.495,11.06 7.927,10.11c3.816,-0.385 5.035,-1.945 3.76,-5.637c-1.527,-4.42 -2.835,-8.917 -4.522,-14.178Z" style="fill:#a3c330;fill-rule:nonzero;"/><path d="M332.63,218.972c-0.01,2.219 0.01,3.852 -0.028,5.483c-0.113,4.809 2.037,7.071 7.024,6.952c7.547,-0.178 15.102,0.015 22.653,-0.013c4.921,-0.018 7.89,1.035 7.665,7.281c-0.201,5.599 -0.835,8.831 -7.46,8.705c-15.097,-0.287 -30.204,-0.175 -45.305,-0.067c-4.474,0.032 -6.043,-1.792 -6.02,-6.25c0.154,-29.183 0.184,-58.369 0.072,-87.554c-0.018,-4.887 1.497,-6.995 6.675,-6.916c14.895,0.227 29.801,0.276 44.693,-0.028c6.839,-0.138 6.645,3.962 6.881,8.766c0.26,5.256 -1.993,6.78 -6.89,6.62c-7.747,-0.254 -15.517,0.179 -23.261,-0.115c-5.155,-0.196 -6.995,1.995 -6.784,6.861c0.194,4.483 0.143,8.978 0.108,13.467c-0.032,4.07 1.823,5.949 5.964,5.878c6.528,-0.113 13.07,0.195 19.589,-0.071c5.085,-0.207 6.319,2.42 6.254,6.778c-0.061,4.184 -0.255,7.851 -6.039,7.631c-6.114,-0.233 -12.254,0.168 -18.363,-0.115c-5.57,-0.258 -7.931,2.003 -7.48,7.552c0.23,2.839 0.051,5.711 0.054,9.157Z" style="fill:#a3c330;fill-rule:nonzero;"/><path d="M254.887,336.317c-7.528,5.886 -15.581,8.635 -24.776,8.183c-11.98,-0.587 -19.904,-7.563 -21.56,-19.305c-2.661,-18.877 10.212,-44.943 26.919,-54.146c9.121,-5.025 18.848,-6.758 28.855,-3.213c11.502,4.075 16.153,21.117 8.788,30.872c-2.241,2.969 -5.51,3.308 -8.69,3.781c-8.861,1.319 -17.752,2.437 -26.622,3.705c-3.33,0.476 -7.498,0.14 -7.672,5.091c-0.169,4.833 1.628,9.006 6.422,10.793c5.485,2.043 10.892,0.996 15.797,-2.038c2.761,-1.707 5.209,-3.912 7.895,-5.75c2.305,-1.579 4.971,-2.414 7.37,-0.519c2.477,1.957 1.085,4.499 0.142,6.714c-2.701,6.352 -7.292,11.22 -12.867,15.832m-6.08,-44.33c3.226,-0.952 6.683,-1.891 5.019,-6.451c-1.375,-3.776 -4.259,-5.138 -8.244,-4.246c-3.94,0.881 -7.055,2.973 -9.405,6.186c-0.954,1.306 -1.802,2.831 -0.993,4.504c0.879,1.821 2.702,1.623 4.272,1.45c2.81,-0.309 5.595,-0.838 9.351,-1.443Z" style="fill:#003e7b;fill-rule:nonzero;"/><path d="M467.652,279.542c12.048,-12.187 28.381,-16.525 40.298,-10.956c9.762,4.561 13.681,22.677 6.713,30.88c-1.728,2.034 -4.041,2.654 -6.491,2.998c-9.286,1.306 -18.585,2.528 -27.862,3.896c-3.657,0.539 -8.206,-0.024 -7.978,5.991c0.208,5.472 3.402,9.704 8.398,10.484c7.17,1.121 13.209,-1.391 18.646,-5.868c1.562,-1.286 3.142,-2.655 4.936,-3.527c1.859,-0.903 4.059,-1.09 5.692,0.62c1.466,1.535 0.957,3.338 0.282,5.153c-5.175,13.919 -20.835,25.155 -35.324,25.288c-14.46,0.132 -23.625,-8.275 -23.749,-22.865c-0.135,-15.902 5.798,-29.768 16.439,-42.094m23.966,12.686c3.907,-0.53 5.279,-2.904 4.246,-6.484c-1.031,-3.573 -3.564,-5.319 -7.403,-4.771c-5.346,0.763 -10.106,5.63 -11.556,12.126c4.682,1.446 9.168,-0.763 14.712,-0.871Z" style="fill:#003e7b;fill-rule:nonzero;"/><path d="M272.112,342.922c-4.015,-0.552 -8.957,1.865 -10.669,-1.909c-1.777,-3.918 3.265,-6.006 5.524,-8.598c6.696,-7.68 13.69,-15.104 20.726,-22.478c2.704,-2.833 3.36,-5.736 2.289,-9.46c-2.42,-8.419 -4.622,-16.902 -6.858,-25.373c-1.462,-5.54 -0.323,-7.11 5.305,-7.421c1.831,-0.102 3.671,-0.061 5.507,-0.064c11.109,-0.01 11.109,-0.007 14.574,10.729c1.407,4.363 3.779,5.073 7.041,1.946c1.761,-1.687 3.454,-3.514 4.833,-5.514c4.151,-6.016 9.794,-8.24 16.902,-7.171c1.909,0.288 4.437,-0.671 5.273,1.913c0.726,2.248 -1.067,3.799 -2.439,5.275c-6.384,6.872 -12.554,13.971 -19.318,20.451c-4.403,4.219 -5.539,8.462 -3.763,14.177c2.539,8.167 4.512,16.508 6.887,24.728c2.136,7.395 1.417,8.457 -6.495,8.67c-14.848,0.399 -14.846,0.398 -19.563,-13.238c-0.332,-0.958 -0.69,-1.918 -1.154,-2.816c-0.266,-0.513 -0.772,-0.903 -1.492,-1.709c-4.889,1.951 -7.517,6.429 -10.963,9.961c-3.328,3.411 -5.698,8.275 -12.149,7.9Z" style="fill:#003e7b;fill-rule:nonzero;"/><path d="M567.291,330.341c-0.152,-3.661 0.376,-6.613 2.379,-9.169c2.709,-3.46 6.403,-5.285 10.636,-5.012c4.019,0.26 5.525,3.66 6.689,7.089c1.128,3.323 2.289,6.898 6.711,6.792c3.428,-0.082 5.603,-2.224 6.598,-5.45c1.4,-4.542 -0.856,-7.316 -4.555,-9.531c-3.67,-2.197 -7.415,-4.359 -10.742,-7.021c-5.58,-4.463 -7.627,-10.363 -5.857,-17.447c5.155,-20.632 23.497,-26.72 40.29,-23.44c3.209,0.627 6.237,2.101 8.598,4.456c3.498,3.491 4.523,7.719 2.71,12.363c-1.871,4.795 -5.4,7.537 -10.677,7.768c-5.014,0.219 -6.479,-3.238 -7.672,-7.185c-0.829,-2.742 -2.638,-4.701 -5.784,-4.474c-2.873,0.207 -4.991,1.818 -6.134,4.437c-1.191,2.73 -0.623,5.291 1.682,7.174c1.884,1.538 3.922,2.947 6.057,4.112c18.024,9.836 20.121,26.883 4.608,40.328c-10.401,9.012 -22.544,11.001 -35.505,6.64c-5.488,-1.847 -9.458,-5.603 -10.032,-12.428Z" style="fill:#003e7b;fill-rule:nonzero;"/><path d="M533.961,311.619c-14.248,-7.106 -14.094,-19.576 -6.909,-31.243c8.064,-13.097 28.275,-18.431 41.784,-11.006c6.445,3.542 8.329,10.422 4.496,16.684c-2.305,3.766 -5.719,5.628 -10.163,5.714c-4.62,0.091 -5.537,-3.439 -6.716,-6.705c-0.946,-2.619 -2.244,-4.998 -5.278,-5.314c-2.649,-0.278 -4.735,1.257 -6.204,3.309c-2.397,3.351 -2.08,6.645 1.302,9.092c2.962,2.143 6.188,3.934 9.364,5.764c11.349,6.538 14.023,14.576 8.816,26.713c-6.956,16.215 -28.156,24.743 -44.356,17.843c-9.272,-3.95 -12.333,-14.096 -6.457,-21.572c2.69,-3.421 6.269,-5.388 10.636,-4.783c4.019,0.557 5.373,3.837 6.33,7.379c0.816,3.019 2.139,5.957 5.704,6.472c3.202,0.463 5.425,-1.504 7.085,-3.956c2.297,-3.389 1.961,-6.621 -1.382,-9.132c-2.44,-1.834 -5.106,-3.365 -8.053,-5.258Z" style="fill:#003e7b;fill-rule:nonzero;"/><path d="M28.708,165.208c0.006,-2.036 0.024,-3.463 0.016,-4.888c-0.088,-13.597 3.581,-16.383 17.174,-13.412c4.311,0.943 3.906,4.047 3.91,7.073c0.027,22.618 0.017,45.236 0.031,67.854c0.006,9.333 0.208,9.549 9.571,9.583c7.131,0.024 14.263,0.01 21.394,-0.056c6.745,-0.064 5.645,4.794 5.879,9.01c0.243,4.359 -0.876,7.01 -5.964,6.959c-15.077,-0.148 -30.157,-0.143 -45.234,-0.038c-5.313,0.038 -7.002,-2.381 -6.961,-7.51c0.206,-24.654 0.149,-49.31 0.185,-74.574Z" style="fill:#a3c330;fill-rule:nonzero;"/><path d="M467.088,208.062c0.009,-18.343 0.146,-36.075 -0.05,-53.804c-0.061,-5.539 1.995,-7.569 7.546,-7.512c16.398,0.17 13.805,-0.737 13.875,13.641c0.126,26.289 0.056,52.581 0.027,78.871c-0.009,7.67 -0.323,7.928 -7.902,7.953c-16.556,0.053 -13.163,0.043 -13.468,-13.469c-0.189,-8.352 -0.029,-16.711 -0.027,-25.679Z" style="fill:#a3c330;fill-rule:nonzero;"/><path d="M400.427,323.84c4.473,-15.335 8.855,-30.177 13.096,-45.059c1.009,-3.541 2.564,-6.442 6.183,-7.755c11.262,-4.083 22.812,-6.217 34.773,-4.273c4.609,0.748 8.943,2.763 9.259,8.218c0.322,5.561 -1.357,10.521 -6.929,13.172c-5.284,2.513 -9.004,1.254 -11.501,-3.963c-1.045,-2.184 -1.499,-4.91 -4.745,-4.729c-3.007,0.169 -4.985,2.147 -5.877,4.706c-2.207,6.34 -4.153,12.775 -6.032,19.222c-3.132,10.75 -6.275,21.503 -9.12,32.33c-1.356,5.159 -4.101,7.317 -9.538,7.272c-16.636,-0.135 -14.834,0.36 -11.06,-13.962c0.415,-1.576 0.897,-3.134 1.489,-5.177Z" style="fill:#003e7b;fill-rule:nonzero;"/><path d="M120.59,222.758c0.028,6.525 -0.013,12.439 0.098,18.35c0.077,4.101 -1.913,5.747 -5.883,6.1c-14.886,1.326 -15.421,0.916 -15.421,-14.003c0,-26.097 0.002,-52.194 0.028,-78.291c0.007,-7.464 0.572,-7.999 7.943,-8.085c13.146,-0.153 13.154,-0.153 13.17,12.929c0.026,20.796 0.04,41.592 0.065,63Z" style="fill:#a3c330;fill-rule:nonzero;"/><g><path d="M44.112,377.275c3.684,-0.25 6.931,-0.375 9.741,-0.375c8.18,0 12.269,4.964 12.269,14.892c0,11.114 -4.464,16.672 -13.393,16.672c-2.622,0 -5.495,-0.234 -8.617,-0.702l0,-30.486Zm8.617,27.911c2.185,0 3.84,-0.546 4.964,-1.639c1.124,-1.093 1.858,-2.537 2.201,-4.332c0.343,-1.795 0.515,-4.051 0.515,-6.767c0,-3.622 -0.484,-6.572 -1.452,-8.851c-0.968,-2.279 -2.779,-3.419 -5.432,-3.419c-1.155,0 -2.466,0.078 -3.934,0.234l0,24.492c1.124,0.187 2.17,0.281 3.138,0.281Z" style="fill:#003e7b;fill-rule:nonzero;"/><rect x="70.524" y="377.088" width="5.479" height="30.908" style="fill:#003e7b;"/><path d="M90.24,376.151c2.685,0 4.847,0.515 6.486,1.545c1.639,1.03 2.459,2.685 2.459,4.964c0,1.124 -0.328,2.037 -0.983,2.74c-0.656,0.702 -1.545,1.054 -2.669,1.054c-1.093,0 -1.904,-0.25 -2.435,-0.749c0.25,-0.687 0.375,-1.467 0.375,-2.342c0,-2.747 -1.218,-4.121 -3.653,-4.121c-1.186,0 -2.115,0.289 -2.786,0.866c-0.671,0.578 -1.007,1.428 -1.007,2.552c0,1.03 0.265,1.967 0.796,2.81c0.531,0.843 1.194,1.592 1.99,2.248c0.796,0.656 1.881,1.452 3.255,2.388c1.623,1.093 2.927,2.068 3.91,2.927c0.983,0.859 1.819,1.889 2.505,3.091c0.687,1.202 1.03,2.583 1.03,4.144c0,2.779 -0.952,4.933 -2.857,6.463c-1.904,1.53 -4.371,2.295 -7.399,2.295c-2.747,0 -5.019,-0.554 -6.814,-1.662c-1.795,-1.108 -2.693,-2.833 -2.693,-5.175c0,-1.124 0.328,-2.037 0.983,-2.74c0.656,-0.702 1.53,-1.054 2.622,-1.054c1.093,0 1.904,0.25 2.435,0.749c-0.219,0.624 -0.328,1.405 -0.328,2.342c0,2.966 1.405,4.449 4.215,4.449c1.374,0 2.498,-0.382 3.372,-1.147c0.874,-0.765 1.311,-1.803 1.311,-3.114c0,-1.03 -0.265,-1.967 -0.796,-2.81c-0.531,-0.843 -1.194,-1.592 -1.99,-2.248c-0.796,-0.656 -1.881,-1.452 -3.255,-2.388c-1.623,-1.093 -2.927,-2.068 -3.91,-2.927c-0.983,-0.859 -1.819,-1.889 -2.505,-3.091c-0.687,-1.202 -1.03,-2.583 -1.03,-4.144c0,-2.498 0.882,-4.441 2.646,-5.83c1.764,-1.389 4.004,-2.084 6.72,-2.084Z" style="fill:#003e7b;fill-rule:nonzero;"/><path d="M120.586,377.088l-0.328,3.465l-7.212,0l0,27.442l-5.479,0l0,-27.442l-7.352,0l0,-3.465l20.371,0Z" style="fill:#003e7b;fill-rule:nonzero;"/><path d="M142.409,385.564c0,2.123 -0.539,3.934 -1.616,5.432c-1.077,1.499 -2.552,2.513 -4.425,3.044l8.148,13.955l-5.994,0l-8.336,-14.798c-0.187,-0.343 -0.281,-0.656 -0.281,-0.937c2.342,0 4.074,-0.523 5.198,-1.569c1.124,-1.046 1.686,-2.693 1.686,-4.941c0,-1.873 -0.476,-3.27 -1.428,-4.191c-0.952,-0.921 -2.412,-1.381 -4.379,-1.381c-0.968,0 -1.967,0.078 -2.997,0.234l0,27.583l-5.479,0l0,-30.721c3.684,-0.25 6.619,-0.375 8.804,-0.375c7.399,0 11.099,2.888 11.099,8.664Z" style="fill:#003e7b;fill-rule:nonzero;"/><rect x="147.373" y="377.088" width="5.479" height="30.908" style="fill:#003e7b;"/><path d="M177.437,384.206c0,1.311 -0.39,2.552 -1.171,3.723c-0.781,1.171 -1.78,2.1 -2.997,2.786c2.061,0.406 3.645,1.342 4.753,2.81c1.108,1.467 1.662,3.278 1.662,5.432c0,2.092 -0.578,3.848 -1.733,5.268c-1.155,1.421 -2.693,2.482 -4.613,3.184c-1.92,0.702 -4.004,1.054 -6.252,1.054c-2.622,0 -5.495,-0.234 -8.617,-0.702l0,-30.486c3.684,-0.25 6.619,-0.375 8.804,-0.375c3.184,0 5.674,0.546 7.469,1.639c1.795,1.093 2.693,2.982 2.693,5.666Zm-13.487,5.573c0.718,0.094 1.514,0.14 2.388,0.14c1.842,0 3.216,-0.421 4.121,-1.264c0.905,-0.843 1.358,-2.17 1.358,-3.981c0,-2.997 -1.623,-4.496 -4.87,-4.496c-0.968,0 -1.967,0.078 -2.997,0.234l0,9.366Zm0,15.126c1.124,0.187 2.17,0.281 3.138,0.281c2.185,0 3.863,-0.5 5.034,-1.499c1.171,-0.999 1.756,-2.529 1.756,-4.589c0,-2.342 -0.632,-3.926 -1.897,-4.753c-1.264,-0.827 -3.239,-1.241 -5.924,-1.241c-0.843,0 -1.545,0.047 -2.107,0.14l0,11.661Z" style="fill:#003e7b;fill-rule:nonzero;"/><path d="M203.99,395.164c0,3.153 -0.273,5.721 -0.82,7.704c-0.546,1.982 -1.553,3.504 -3.021,4.566c-1.467,1.061 -3.59,1.592 -6.369,1.592c-2.685,0 -4.769,-0.445 -6.252,-1.335c-1.483,-0.89 -2.521,-2.224 -3.114,-4.004c-0.593,-1.78 -0.89,-4.105 -0.89,-6.978l0,-19.622l5.479,0l0,19.107c0,2.061 0.101,3.739 0.304,5.034c0.203,1.296 0.679,2.373 1.428,3.231c0.749,0.859 1.889,1.288 3.419,1.288c1.53,0 2.669,-0.46 3.419,-1.381c0.749,-0.921 1.218,-2.068 1.405,-3.442c0.187,-1.374 0.281,-3.122 0.281,-5.245l0,-18.592l4.73,0l0,18.076Z" style="fill:#003e7b;fill-rule:nonzero;"/><rect x="209.376" y="377.088" width="5.479" height="30.908" style="fill:#003e7b;"/><path d="M220.474,377.275c3.684,-0.25 6.931,-0.375 9.741,-0.375c8.18,0 12.269,4.964 12.269,14.892c0,11.114 -4.464,16.672 -13.393,16.672c-2.622,0 -5.495,-0.234 -8.617,-0.702l0,-30.486Zm8.617,27.911c2.185,0 3.84,-0.546 4.964,-1.639c1.124,-1.093 1.858,-2.537 2.201,-4.332c0.343,-1.795 0.515,-4.051 0.515,-6.767c0,-3.622 -0.484,-6.572 -1.452,-8.851c-0.968,-2.279 -2.779,-3.419 -5.432,-3.419c-1.155,0 -2.466,0.078 -3.934,0.234l0,24.492c1.124,0.187 2.17,0.281 3.138,0.281Z" style="fill:#003e7b;fill-rule:nonzero;"/><path d="M257.704,376.151c7.992,0 11.989,5.323 11.989,15.969c0,11.27 -3.996,16.906 -11.989,16.906c-4.371,0 -7.469,-1.452 -9.296,-4.355c-1.826,-2.903 -2.74,-6.9 -2.74,-11.989c0,-4.995 0.944,-8.999 2.833,-12.012c1.889,-3.013 4.956,-4.519 9.202,-4.519Zm0,29.597c2.498,0 4.137,-1.241 4.917,-3.723c0.781,-2.482 1.171,-5.674 1.171,-9.577c0,-3.715 -0.406,-6.814 -1.218,-9.296c-0.812,-2.482 -2.435,-3.723 -4.87,-3.723c-2.466,0 -4.105,1.241 -4.917,3.723c-0.812,2.482 -1.218,5.581 -1.218,9.296c0,3.903 0.39,7.095 1.171,9.577c0.781,2.482 2.435,3.723 4.964,3.723Z" style="fill:#003e7b;fill-rule:nonzero;"/><path d="M293.998,385.564c0,2.123 -0.539,3.934 -1.616,5.432c-1.077,1.499 -2.552,2.513 -4.425,3.044l8.148,13.955l-5.994,0l-8.336,-14.798c-0.187,-0.343 -0.281,-0.656 -0.281,-0.937c2.342,0 4.074,-0.523 5.198,-1.569c1.124,-1.046 1.686,-2.693 1.686,-4.941c0,-1.873 -0.476,-3.27 -1.428,-4.191c-0.952,-0.921 -2.412,-1.381 -4.379,-1.381c-0.968,0 -1.967,0.078 -2.997,0.234l0,27.583l-5.479,0l0,-30.721c3.684,-0.25 6.619,-0.375 8.804,-0.375c7.399,0 11.099,2.888 11.099,8.664Z" style="fill:#003e7b;fill-rule:nonzero;"/></g><g><path d="M391.554,377.088l0,30.908l-5.479,0l0,-25.803l-7.493,25.803l-3.653,0l-7.493,-25.897l0,25.897l-4.402,0l0,-30.908l8.242,0l6.228,22.244l6.182,-22.244l7.867,0Z" style="fill:#003e7b;fill-rule:nonzero;"/><path d="M409.911,377.088l8.008,30.908l-5.526,0l-1.873,-7.867l-9.179,0l-1.826,7.867l-5.151,0l8.57,-30.908l6.978,0Zm-7.727,19.575l7.54,0l-3.793,-16.063l-3.746,16.063Z" style="fill:#003e7b;fill-rule:nonzero;"/><path d="M432.437,393.713l0,14.283l-5.479,0l0,-13.721l-8.991,-17.187l5.994,0l6.088,12.691l5.76,-12.691l5.62,0l-8.991,16.625Z" style="fill:#003e7b;fill-rule:nonzero;"/><path d="M455.149,376.151c7.992,0 11.989,5.323 11.989,15.969c0,11.27 -3.996,16.906 -11.989,16.906c-4.371,0 -7.469,-1.452 -9.296,-4.355c-1.826,-2.903 -2.74,-6.9 -2.74,-11.989c0,-4.995 0.944,-8.999 2.833,-12.012c1.889,-3.013 4.956,-4.519 9.202,-4.519Zm0,29.597c2.498,0 4.137,-1.241 4.917,-3.723c0.781,-2.482 1.171,-5.674 1.171,-9.577c0,-3.715 -0.406,-6.814 -1.218,-9.296c-0.812,-2.482 -2.435,-3.723 -4.87,-3.723c-2.466,0 -4.105,1.241 -4.917,3.723c-0.812,2.482 -1.218,5.581 -1.218,9.296c0,3.903 0.39,7.095 1.171,9.577c0.781,2.482 2.435,3.723 4.964,3.723Z" style="fill:#003e7b;fill-rule:nonzero;"/><path d="M491.443,385.564c0,2.123 -0.539,3.934 -1.616,5.432c-1.077,1.499 -2.552,2.513 -4.425,3.044l8.148,13.955l-5.994,0l-8.336,-14.798c-0.187,-0.343 -0.281,-0.656 -0.281,-0.937c2.342,0 4.074,-0.523 5.198,-1.569c1.124,-1.046 1.686,-2.693 1.686,-4.941c0,-1.873 -0.476,-3.27 -1.428,-4.191c-0.952,-0.921 -2.412,-1.381 -4.379,-1.381c-0.968,0 -1.967,0.078 -2.997,0.234l0,27.583l-5.479,0l0,-30.721c3.684,-0.25 6.619,-0.375 8.804,-0.375c7.399,0 11.099,2.888 11.099,8.664Z" style="fill:#003e7b;fill-rule:nonzero;"/><rect x="496.407" y="377.088" width="5.479" height="30.908" style="fill:#003e7b;"/><path d="M516.122,376.151c2.685,0 4.847,0.515 6.486,1.545c1.639,1.03 2.459,2.685 2.459,4.964c0,1.124 -0.328,2.037 -0.983,2.74c-0.656,0.702 -1.545,1.054 -2.669,1.054c-1.093,0 -1.904,-0.25 -2.435,-0.749c0.25,-0.687 0.375,-1.467 0.375,-2.342c0,-2.747 -1.218,-4.121 -3.653,-4.121c-1.186,0 -2.115,0.289 -2.786,0.866c-0.671,0.578 -1.007,1.428 -1.007,2.552c0,1.03 0.265,1.967 0.796,2.81c0.531,0.843 1.194,1.592 1.99,2.248c0.796,0.656 1.881,1.452 3.255,2.388c1.623,1.093 2.927,2.068 3.91,2.927c0.983,0.859 1.819,1.889 2.505,3.091c0.687,1.202 1.03,2.583 1.03,4.144c0,2.779 -0.952,4.933 -2.857,6.463c-1.904,1.53 -4.371,2.295 -7.399,2.295c-2.747,0 -5.019,-0.554 -6.814,-1.662c-1.795,-1.108 -2.693,-2.833 -2.693,-5.175c0,-1.124 0.328,-2.037 0.983,-2.74c0.656,-0.702 1.53,-1.054 2.622,-1.054c1.093,0 1.904,0.25 2.435,0.749c-0.219,0.624 -0.328,1.405 -0.328,2.342c0,2.966 1.405,4.449 4.215,4.449c1.374,0 2.498,-0.382 3.372,-1.147c0.874,-0.765 1.311,-1.803 1.311,-3.114c0,-1.03 -0.265,-1.967 -0.796,-2.81c-0.531,-0.843 -1.194,-1.592 -1.99,-2.248c-0.796,-0.656 -1.881,-1.452 -3.255,-2.388c-1.623,-1.093 -2.927,-2.068 -3.91,-2.927c-0.983,-0.859 -1.819,-1.889 -2.505,-3.091c-0.687,-1.202 -1.03,-2.583 -1.03,-4.144c0,-2.498 0.882,-4.441 2.646,-5.83c1.764,-1.389 4.004,-2.084 6.72,-2.084Z" style="fill:#003e7b;fill-rule:nonzero;"/><path d="M546.468,377.088l-0.328,3.465l-7.212,0l0,27.442l-5.479,0l0,-27.442l-7.352,0l0,-3.465l20.371,0Z" style="fill:#003e7b;fill-rule:nonzero;"/><path d="M561.126,377.088l8.008,30.908l-5.526,0l-1.873,-7.867l-9.179,0l-1.826,7.867l-5.151,0l8.57,-30.908l6.978,0Zm-7.727,19.575l7.54,0l-3.793,-16.063l-3.746,16.063Z" style="fill:#003e7b;fill-rule:nonzero;"/></g></svg>