<svg xmlns="http://www.w3.org/2000/svg" viewBox="0 0 1200 630" role="img" aria-label="Librería Express — Distribuidor Mayorista">
  <defs>
    <radialGradient id="bg" cx="80%" cy="0%" r="120%">
      <stop offset="0%" stop-color="#16203a"/>
      <stop offset="45%" stop-color="#003e7b"/>
      <stop offset="100%" stop-color="#002b56"/>
    </radialGradient>
  </defs>
  <rect width="1200" height="630" fill="url(#bg)"/>
  <circle cx="1080" cy="90" r="260" fill="#a3c330" opacity="0.15"/>

  <!-- Marca: camioneta -->
  <g transform="translate(90,120) scale(3.2)" fill="none" stroke="#a3c330" stroke-width="2" stroke-linecap="round" stroke-linejoin="round">
    <path d="M14 18V6a2 2 0 0 0-2-2H4a2 2 0 0 0-2 2v11a1 1 0 0 0 1 1h2"/>
    <path d="M15 18H9"/>
    <path d="M19 18h2a1 1 0 0 0 1-1v-3.65a1 1 0 0 0-.22-.624l-3.48-4.35A1 1 0 0 0 17.52 8H14"/>
    <circle cx="17" cy="18" r="2"/>
    <circle cx="7" cy="18" r="2"/>
  </g>

  <text x="90" y="340" fill="#ffffff" font-family="Georgia, 'Times New Roman', serif" font-weight="700" font-size="84" letter-spacing="-2">Librería Express</text>
  <text x="92" y="400" fill="#a3c330" font-family="Arial, sans-serif" font-weight="700" font-size="30" letter-spacing="6">DISTRIBUIDOR MAYORISTA · TUCUMÁN</text>

  <text x="90" y="500" fill="rgba(255,255,255,0.85)" font-family="Arial, sans-serif" font-size="34">Abastecé tu negocio al mejor precio mayorista.</text>
  <text x="90" y="548" fill="rgba(255,255,255,0.6)" font-family="Arial, sans-serif" font-size="28">Envío SIN CARGO superando $80.000 · Atención por WhatsApp</text>
</svg>
