<svg xmlns="http://www.w3.org/2000/svg" id="Capa_2" viewBox="0 0 97.17 29.83"><defs><style>.cls-1{fill:#bf072d;}</style></defs><g id="Capa_1-2"><path class="cls-1" d="m14.05,0C6.29,0,0,6.29,0,14.05s6.29,14.05,14.05,14.05,14.05-6.29,14.05-14.05S21.81,0,14.05,0m8.87,6.12s-.02.08-.04.12c-.87,0-5.82,1.63-6.4,2.74,1.89-.52,4.56-.65,4.96.08-.02.04-.05.07-.08.11-1.37-.25-6.05,2.35-7.35,2.09,1.69,1.56,4.87-.23,5.49.19-2.43,2.61-5.17,4.5-5.17,4.5-1.19-.5-3.98-.85-5.75,2.68-1.12,2.23-.91,3.4-.91,3.4-1.31.18-2.85,2.14-2.85,2.14,0,0,1.38-4.54,6.52-11.85,5.35-7.62,11.22-8.78,11.74-8.87-.68.4-2.77,1.11-4.98,3.58,2.08-1.24,4.16-1.11,4.81-.9"></path><path class="cls-1" d="m52.5,3.63l-2.68,2.65-2.68-2.65,2.68-2.65,2.68,2.65Zm-4.74,4.24l3.96-.37v16.22l-3.96.25V7.87Z"></path><polygon class="cls-1" points="55.07 23.97 55.07 2.32 59.03 1.82 59.03 23.72 55.07 23.97"></polygon><path class="cls-1" d="m64.88,18.82c-2.71-1.15-3.74-2.56-3.74-5.21,0-3.71,3.22-6.24,7.24-6.24,1.81,0,3.24.19,3.84.19,1.56,0,3.74-.5,5.52-1.06l-.78,3.37h-2.43c1,1.12,1.59,2.28,1.59,3.87,0,2.21-1.37,3.84-3.37,4.65,2.21,1.06,3.65,2.68,3.65,5.21,0,4.31-4.15,6.24-7.49,6.24-3.62,0-5.93-.9-8.02-3.18l2.43-2.53c1.69,1.75,2.68,2.4,5.18,2.4,1.59,0,3.77-.97,3.77-3.09,0-2.43-1.9-3.56-4.21-3.56-1.37,0-2.68.5-3.84,1.15l.66-2.22Zm3.74-1.9c1.81,0,3.53-1.4,3.53-3.31s-1.72-3.28-3.53-3.28-3.53,1.4-3.53,3.28,1.72,3.31,3.53,3.31"></path><path class="cls-1" d="m86.65,7.37c4.68,0,8.8,3.65,8.8,8.42s-4.12,8.42-8.8,8.42-8.8-3.65-8.8-8.42,4.12-8.42,8.8-8.42m0,13.23c2.69,0,5.05-2.09,5.05-4.8s-2.37-4.8-5.05-4.8-5.05,2.09-5.05,4.8,2.37,4.8,5.05,4.8"></path><path class="cls-1" d="m45.58,4.46c-3.2-.75-5.28.68-5.28,3.46h4.02v3.43h-4.02v12.44l-3.96.25v-12.69h-2.5l.87-3.43h1.62c.09-2.24.52-7.74,7.84-7.14l1.4,3.68Z"></path><path class="cls-1" d="m93.28,5.87c0-1.07.88-1.93,1.95-1.93s1.94.86,1.94,1.93-.88,1.94-1.94,1.94-1.95-.86-1.95-1.94Zm1.95-1.65c-.93,0-1.64.72-1.64,1.65s.71,1.66,1.64,1.66,1.63-.71,1.63-1.66-.7-1.65-1.63-1.65Zm-.44,2.79h-.29v-2.28h.87c.52,0,.76.22.76.65s-.26.58-.58.64l.66,1h-.34l-.63-1h-.45v1Zm0-2.02v.77h.53c.4,0,.52-.15.52-.39,0-.31-.27-.38-.53-.38h-.52Z"></path></g></svg>